<?xml version="1.0" encoding="UTF-8"?>
<svg xmlns="http://www.w3.org/2000/svg" style="display:none">

    <symbol id="arrow-right" width="24px" height="24px" viewBox="0 0 24 24">
        <path d="M9.64817 16.4222C9.46817 16.4222 9.29817 16.3522 9.16817 16.2122C8.92817 15.9422 8.94817 15.5322 9.20817 15.2922L12.7013 12.146L9.21207 9.12817C8.94207 8.88817 8.93207 8.47818 9.17207 8.20817C9.41207 7.94818 9.82207 7.92817 10.0921 8.16817L14.0713 11.626C14.3813 11.906 14.3813 12.386 14.0713 12.666L10.0882 16.2522C9.95817 16.3722 9.80817 16.4222 9.64817 16.4222Z"
              fill="currentColor"/>
    </symbol>

    <symbol id="geo" width="32px" height="32px" viewBox="0 0 32 32">
        <path fill-rule="evenodd" clip-rule="evenodd"
              d="M9.43129 12.9213C9.43129 9.33717 12.3718 6.43165 15.9991 6.43165C19.6264 6.43165 22.567 9.33717 22.567 12.9213C22.567 16.5054 19.6264 19.411 15.9991 19.411C12.3718 19.411 9.43129 16.5054 9.43129 12.9213ZM15.9991 8.46455C13.5081 8.46455 11.4887 10.4599 11.4887 12.9213C11.4887 15.3827 13.5081 17.3781 15.9991 17.3781C18.4902 17.3781 20.5096 15.3827 20.5096 12.9213C20.5096 10.4599 18.4902 8.46455 15.9991 8.46455Z"
              fill="currentColor"/>
        <path fill-rule="evenodd" clip-rule="evenodd"
              d="M15.4034 2.02173C20.5826 1.71267 26.0838 4.69557 26.9012 11.3061C26.9588 11.7716 26.9935 12.2045 26.9991 12.5943C27.0289 14.6997 26.3516 16.8299 25.3829 18.7986C24.4106 20.7743 23.1148 22.6477 21.8341 24.2573C20.5511 25.8698 19.2674 27.2374 18.3054 28.2013C17.7782 28.7296 17.2439 29.2523 16.6821 29.7449C16.2927 30.0857 15.7061 30.0847 15.3167 29.7439C15.317 29.7442 15.3873 29.6668 15.3167 29.7439C14.7562 29.2507 14.2214 28.7292 13.6945 28.2013C12.7325 27.2374 11.4489 25.8698 10.1659 24.2573C8.8852 22.6477 7.58934 20.7743 6.61713 18.7986C5.64837 16.8299 4.97111 14.6997 5.00095 12.5943C5.09521 5.94289 10.2267 2.33063 15.4034 2.02173ZM16 27.5943C15.7666 27.3728 15.482 27.0971 15.1595 26.774C14.2353 25.8479 13.0063 24.538 11.7833 23.0009C10.558 21.4609 9.35459 19.7125 8.46739 17.9096C7.57673 16.0997 7.03445 14.2944 7.05814 12.6228C7.13423 7.25359 11.1903 4.30973 15.5274 4.05093C19.862 3.79228 24.2009 6.2301 24.859 11.5526C24.9106 11.9695 24.9377 12.3264 24.9419 12.6228C24.9655 14.2944 24.4233 16.0997 23.5326 17.9096C22.6454 19.7125 21.4419 21.4609 20.2167 23.0009C18.9936 24.538 17.7646 25.8479 16.8404 26.774C16.5179 27.0971 16.2333 27.3728 16 27.5943Z"
              fill="currentColor"/>
    </symbol>

    <symbol id="mail" width="32px" height="32px" viewBox="0 0 32 32">
        <path fill-rule="evenodd" clip-rule="evenodd"
              d="M6.66667 5C4.08444 5 2 7.08634 2 9.67091V22.3291C2 24.9137 4.08444 27 6.66667 27H25.3333C27.9156 27 30 24.9137 30 22.3291V9.67091C30 7.08634 27.9 5 25.3333 5H6.66667ZM27.9778 11.145L21.2154 16.245L25.214 19.2563C25.6602 19.5923 25.7498 20.2268 25.414 20.6734C25.0783 21.1201 24.4444 21.2097 23.9982 20.8737L19.5348 17.5124L19.2612 17.7187C17.2384 19.2443 14.4506 19.2443 12.4277 17.7187L12.1541 17.5124L7.69077 20.8737C7.24455 21.2097 6.61064 21.1201 6.27491 20.6734C5.93917 20.2268 6.02874 19.5923 6.47496 19.2563L10.4736 16.245L4.02222 11.3796V22.3291C4.02222 23.7926 5.20444 24.9759 6.66667 24.9759H25.3333C26.7956 24.9759 27.9778 23.7926 27.9778 22.3291V11.145ZM25.3333 7.02406C26.4673 7.02406 27.4328 7.7357 27.8092 8.73781L18.0443 16.1022C16.7419 17.0844 14.947 17.0844 13.6446 16.1022L4.12828 8.92529C4.44939 7.82563 5.46319 7.02406 6.66667 7.02406H25.3333Z"
              fill="currentColor"/>
    </symbol>

    <symbol id="phone" width="32px" height="32px" viewBox="0 0 32 32">
        <g clip-path="url(#clip0_1_60732)">
            <path fill-rule="evenodd" clip-rule="evenodd"
                  d="M5.04169 7.40938C5.10886 6.00327 5.94616 4.89167 6.94488 4.17975L8.76606 2.88155C10.0873 1.9397 11.9219 2.24693 12.8643 3.56786L15.005 6.56873C15.9476 7.89 15.6406 9.72522 14.3194 10.6678L12.7938 11.7561C12.7905 11.7585 12.7879 11.7607 12.7858 11.7627C13.0874 12.6977 13.804 14.5552 15.2221 16.5431C16.6402 18.531 18.1634 19.8131 18.9494 20.4025C18.9519 20.4012 18.9549 20.3995 18.9582 20.3971L20.4837 19.3088C21.805 18.3662 23.6402 18.6732 24.5828 19.9945L26.7805 23.0751C27.7233 24.3967 27.4159 26.2324 26.0939 27.1748L24.3374 28.4268C23.2946 29.1702 21.9119 29.5936 20.5232 29.1576C18.1183 28.4026 13.7521 26.2879 9.60048 20.4683C5.42861 14.6203 4.924 9.87287 5.04169 7.40938ZM8.08209 5.77509C7.41526 6.25043 7.02905 6.86591 6.99862 7.50287C6.90075 9.5518 7.29312 13.8605 11.1954 19.3305C15.0799 24.7757 19.0784 26.6505 21.1101 27.2884C21.7561 27.4912 22.5065 27.326 23.2002 26.8315L24.9567 25.5794C25.3973 25.2653 25.4998 24.6534 25.1855 24.2129L22.9879 21.1323C22.6737 20.6919 22.062 20.5895 21.6215 20.9037L20.096 21.992C19.4342 22.4641 18.5069 22.5176 17.7948 21.9855C16.9036 21.3196 15.2061 19.8943 13.6272 17.6809C12.0482 15.4675 11.2529 13.3986 10.9133 12.3392C10.6419 11.4928 10.9942 10.6333 11.656 10.1612L13.1816 9.07289C13.622 8.75869 13.7243 8.14695 13.4101 7.70653L11.2693 4.70566C10.9552 4.26535 10.3437 4.16294 9.90327 4.47689L8.08209 5.77509Z"
                  fill="currentColor"/>
        </g>
        <defs>
            <clipPath id="clip0_1_60732">
                <rect width="32" height="32" fill="currentColor"/>
            </clipPath>
        </defs>
    </symbol>
</svg>