<?xml version="1.0" encoding="UTF-8"?>
<svg xmlns="http://www.w3.org/2000/svg" style="display:none">

    <symbol id="arrow-right" width="24px" height="24px" fill="none" viewBox="0 0 24 24">
        <path d="M9.64817 16.4222C9.46817 16.4222 9.29817 16.3522 9.16817 16.2122C8.92817 15.9422 8.94817 15.5322 9.20817 15.2922L12.7013 12.146L9.21207 9.12817C8.94207 8.88817 8.93207 8.47818 9.17207 8.20817C9.41207 7.94818 9.82207 7.92817 10.0921 8.16817L14.0713 11.626C14.3813 11.906 14.3813 12.386 14.0713 12.666L10.0882 16.2522C9.95817 16.3722 9.80817 16.4222 9.64817 16.4222Z"
              fill="currentColor"/>
    </symbol>

    <symbol id="geo" width="32px" height="32px" fill="none" viewBox="0 0 32 32">
        <path fill-rule="evenodd" clip-rule="evenodd"
              d="M9.43129 12.9213C9.43129 9.33717 12.3718 6.43165 15.9991 6.43165C19.6264 6.43165 22.567 9.33717 22.567 12.9213C22.567 16.5054 19.6264 19.411 15.9991 19.411C12.3718 19.411 9.43129 16.5054 9.43129 12.9213ZM15.9991 8.46455C13.5081 8.46455 11.4887 10.4599 11.4887 12.9213C11.4887 15.3827 13.5081 17.3781 15.9991 17.3781C18.4902 17.3781 20.5096 15.3827 20.5096 12.9213C20.5096 10.4599 18.4902 8.46455 15.9991 8.46455Z"
              fill="currentColor"/>
        <path fill-rule="evenodd" clip-rule="evenodd"
              d="M15.4034 2.02173C20.5826 1.71267 26.0838 4.69557 26.9012 11.3061C26.9588 11.7716 26.9935 12.2045 26.9991 12.5943C27.0289 14.6997 26.3516 16.8299 25.3829 18.7986C24.4106 20.7743 23.1148 22.6477 21.8341 24.2573C20.5511 25.8698 19.2674 27.2374 18.3054 28.2013C17.7782 28.7296 17.2439 29.2523 16.6821 29.7449C16.2927 30.0857 15.7061 30.0847 15.3167 29.7439C15.317 29.7442 15.3873 29.6668 15.3167 29.7439C14.7562 29.2507 14.2214 28.7292 13.6945 28.2013C12.7325 27.2374 11.4489 25.8698 10.1659 24.2573C8.8852 22.6477 7.58934 20.7743 6.61713 18.7986C5.64837 16.8299 4.97111 14.6997 5.00095 12.5943C5.09521 5.94289 10.2267 2.33063 15.4034 2.02173ZM16 27.5943C15.7666 27.3728 15.482 27.0971 15.1595 26.774C14.2353 25.8479 13.0063 24.538 11.7833 23.0009C10.558 21.4609 9.35459 19.7125 8.46739 17.9096C7.57673 16.0997 7.03445 14.2944 7.05814 12.6228C7.13423 7.25359 11.1903 4.30973 15.5274 4.05093C19.862 3.79228 24.2009 6.2301 24.859 11.5526C24.9106 11.9695 24.9377 12.3264 24.9419 12.6228C24.9655 14.2944 24.4233 16.0997 23.5326 17.9096C22.6454 19.7125 21.4419 21.4609 20.2167 23.0009C18.9936 24.538 17.7646 25.8479 16.8404 26.774C16.5179 27.0971 16.2333 27.3728 16 27.5943Z"
              fill="currentColor"/>
    </symbol>

    <symbol id="mail" width="32px" height="32px" fill="none" viewBox="0 0 32 32">
        <path fill-rule="evenodd" clip-rule="evenodd"
              d="M6.66667 5C4.08444 5 2 7.08634 2 9.67091V22.3291C2 24.9137 4.08444 27 6.66667 27H25.3333C27.9156 27 30 24.9137 30 22.3291V9.67091C30 7.08634 27.9 5 25.3333 5H6.66667ZM27.9778 11.145L21.2154 16.245L25.214 19.2563C25.6602 19.5923 25.7498 20.2268 25.414 20.6734C25.0783 21.1201 24.4444 21.2097 23.9982 20.8737L19.5348 17.5124L19.2612 17.7187C17.2384 19.2443 14.4506 19.2443 12.4277 17.7187L12.1541 17.5124L7.69077 20.8737C7.24455 21.2097 6.61064 21.1201 6.27491 20.6734C5.93917 20.2268 6.02874 19.5923 6.47496 19.2563L10.4736 16.245L4.02222 11.3796V22.3291C4.02222 23.7926 5.20444 24.9759 6.66667 24.9759H25.3333C26.7956 24.9759 27.9778 23.7926 27.9778 22.3291V11.145ZM25.3333 7.02406C26.4673 7.02406 27.4328 7.7357 27.8092 8.73781L18.0443 16.1022C16.7419 17.0844 14.947 17.0844 13.6446 16.1022L4.12828 8.92529C4.44939 7.82563 5.46319 7.02406 6.66667 7.02406H25.3333Z"
              fill="currentColor"/>
    </symbol>

    <symbol id="phone" width="32px" height="32px" fill="none" viewBox="0 0 32 32">
        <g clip-path="url(#clip0_1_60732)">
            <path fill-rule="evenodd" clip-rule="evenodd"
                  d="M5.04169 7.40938C5.10886 6.00327 5.94616 4.89167 6.94488 4.17975L8.76606 2.88155C10.0873 1.9397 11.9219 2.24693 12.8643 3.56786L15.005 6.56873C15.9476 7.89 15.6406 9.72522 14.3194 10.6678L12.7938 11.7561C12.7905 11.7585 12.7879 11.7607 12.7858 11.7627C13.0874 12.6977 13.804 14.5552 15.2221 16.5431C16.6402 18.531 18.1634 19.8131 18.9494 20.4025C18.9519 20.4012 18.9549 20.3995 18.9582 20.3971L20.4837 19.3088C21.805 18.3662 23.6402 18.6732 24.5828 19.9945L26.7805 23.0751C27.7233 24.3967 27.4159 26.2324 26.0939 27.1748L24.3374 28.4268C23.2946 29.1702 21.9119 29.5936 20.5232 29.1576C18.1183 28.4026 13.7521 26.2879 9.60048 20.4683C5.42861 14.6203 4.924 9.87287 5.04169 7.40938ZM8.08209 5.77509C7.41526 6.25043 7.02905 6.86591 6.99862 7.50287C6.90075 9.5518 7.29312 13.8605 11.1954 19.3305C15.0799 24.7757 19.0784 26.6505 21.1101 27.2884C21.7561 27.4912 22.5065 27.326 23.2002 26.8315L24.9567 25.5794C25.3973 25.2653 25.4998 24.6534 25.1855 24.2129L22.9879 21.1323C22.6737 20.6919 22.062 20.5895 21.6215 20.9037L20.096 21.992C19.4342 22.4641 18.5069 22.5176 17.7948 21.9855C16.9036 21.3196 15.2061 19.8943 13.6272 17.6809C12.0482 15.4675 11.2529 13.3986 10.9133 12.3392C10.6419 11.4928 10.9942 10.6333 11.656 10.1612L13.1816 9.07289C13.622 8.75869 13.7243 8.14695 13.4101 7.70653L11.2693 4.70566C10.9552 4.26535 10.3437 4.16294 9.90327 4.47689L8.08209 5.77509Z"
                  fill="currentColor"/>
        </g>
        <defs>
            <clipPath id="clip0_1_60732">
                <rect width="32" height="32" fill="currentColor"/>
            </clipPath>
        </defs>
    </symbol>

    <symbol id="facebook" width="24px" height="24px" fill="none" viewBox="0 0 24 24">
        <path d="M10.6955 8.937V10.314H9.6875V11.997H10.6955V17H12.7675V11.997H14.1575C14.1575 11.997 14.2885 11.19 14.3515 10.307H12.7755V9.157C12.7755 8.984 13.0015 8.753 13.2255 8.753H14.3535V7H12.8185C10.6445 7 10.6955 8.685 10.6955 8.937Z"
              fill="currentColor"/>
        <path d="M12 20C14.1217 20 16.1566 19.1571 17.6569 17.6569C19.1571 16.1566 20 14.1217 20 12C20 9.87827 19.1571 7.84344 17.6569 6.34315C16.1566 4.84285 14.1217 4 12 4C9.87827 4 7.84344 4.84285 6.34315 6.34315C4.84285 7.84344 4 9.87827 4 12C4 14.1217 4.84285 16.1566 6.34315 17.6569C7.84344 19.1571 9.87827 20 12 20ZM12 22C6.477 22 2 17.523 2 12C2 6.477 6.477 2 12 2C17.523 2 22 6.477 22 12C22 17.523 17.523 22 12 22Z"
              fill="currentColor"/>
    </symbol>

    <symbol id="instagram" width="24px" height="24px" fill="none" viewBox="0 0 24 24">
        <path d="M7.8 2H16.2C19.4 2 22 4.6 22 7.8V16.2C22 17.7383 21.3889 19.2135 20.3012 20.3012C19.2135 21.3889 17.7383 22 16.2 22H7.8C4.6 22 2 19.4 2 16.2V7.8C2 6.26174 2.61107 4.78649 3.69878 3.69878C4.78649 2.61107 6.26174 2 7.8 2ZM7.6 4C6.64522 4 5.72955 4.37928 5.05442 5.05442C4.37928 5.72955 4 6.64522 4 7.6V16.4C4 18.39 5.61 20 7.6 20H16.4C17.3548 20 18.2705 19.6207 18.9456 18.9456C19.6207 18.2705 20 17.3548 20 16.4V7.6C20 5.61 18.39 4 16.4 4H7.6ZM17.25 5.5C17.5815 5.5 17.8995 5.6317 18.1339 5.86612C18.3683 6.10054 18.5 6.41848 18.5 6.75C18.5 7.08152 18.3683 7.39946 18.1339 7.63388C17.8995 7.8683 17.5815 8 17.25 8C16.9185 8 16.6005 7.8683 16.3661 7.63388C16.1317 7.39946 16 7.08152 16 6.75C16 6.41848 16.1317 6.10054 16.3661 5.86612C16.6005 5.6317 16.9185 5.5 17.25 5.5ZM12 7C13.3261 7 14.5979 7.52678 15.5355 8.46447C16.4732 9.40215 17 10.6739 17 12C17 13.3261 16.4732 14.5979 15.5355 15.5355C14.5979 16.4732 13.3261 17 12 17C10.6739 17 9.40215 16.4732 8.46447 15.5355C7.52678 14.5979 7 13.3261 7 12C7 10.6739 7.52678 9.40215 8.46447 8.46447C9.40215 7.52678 10.6739 7 12 7ZM12 9C11.2044 9 10.4413 9.31607 9.87868 9.87868C9.31607 10.4413 9 11.2044 9 12C9 12.7956 9.31607 13.5587 9.87868 14.1213C10.4413 14.6839 11.2044 15 12 15C12.7956 15 13.5587 14.6839 14.1213 14.1213C14.6839 13.5587 15 12.7956 15 12C15 11.2044 14.6839 10.4413 14.1213 9.87868C13.5587 9.31607 12.7956 9 12 9Z"
              fill="currentColor"/>
    </symbol>

    <symbol id="linkedin" width="24px" height="24px" fill="none" viewBox="0 0 24 24">
        <g clip-path="url(#clip0_1_60794)">
            <path d="M18.6667 2.5C19.5507 2.5 20.3986 2.85119 21.0237 3.47631C21.6488 4.10143 22 4.94928 22 5.83333V19.1667C22 20.0507 21.6488 20.8986 21.0237 21.5237C20.3986 22.1488 19.5507 22.5 18.6667 22.5H5.33333C4.44928 22.5 3.60143 22.1488 2.97631 21.5237C2.35119 20.8986 2 20.0507 2 19.1667V5.83333C2 4.94928 2.35119 4.10143 2.97631 3.47631C3.60143 2.85119 4.44928 2.5 5.33333 2.5H18.6667ZM18.6667 4.72222H5.33333C5.03865 4.72222 4.75603 4.83929 4.54766 5.04766C4.33929 5.25603 4.22222 5.53865 4.22222 5.83333V19.1667C4.22222 19.4614 4.33929 19.744 4.54766 19.9523C4.75603 20.1607 5.03865 20.2778 5.33333 20.2778H18.6667C18.9614 20.2778 19.244 20.1607 19.4523 19.9523C19.6607 19.744 19.7778 19.4614 19.7778 19.1667V5.83333C19.7778 5.53865 19.6607 5.25603 19.4523 5.04766C19.244 4.83929 18.9614 4.72222 18.6667 4.72222ZM7.55556 10.2778C7.8277 10.2778 8.09038 10.3777 8.29375 10.5586C8.49712 10.7394 8.62705 10.9886 8.65889 11.2589L8.66667 11.3889V16.9444C8.66635 17.2276 8.55791 17.5 8.3635 17.706C8.16909 17.9119 7.90339 18.0358 7.62067 18.0524C7.33796 18.069 7.05958 17.977 6.84241 17.7953C6.62524 17.6135 6.48567 17.3557 6.45222 17.0744L6.44444 16.9444V11.3889C6.44444 11.0942 6.56151 10.8116 6.76988 10.6032C6.97826 10.3948 7.26087 10.2778 7.55556 10.2778ZM10.8889 9.16667C11.1491 9.16663 11.4011 9.25792 11.6009 9.42463C11.8007 9.59133 11.9356 9.82288 11.9822 10.0789C12.2058 9.94923 12.437 9.8331 12.6744 9.73111C13.4156 9.41445 14.5256 9.24 15.5278 9.55444C16.0533 9.72111 16.5811 10.0322 16.9722 10.5622C17.3222 11.0344 17.5111 11.6089 17.5489 12.2544L17.5556 12.5V16.9444C17.5552 17.2276 17.4468 17.5 17.2524 17.706C17.058 17.9119 16.7923 18.0358 16.5096 18.0524C16.2268 18.069 15.9485 17.977 15.7313 17.7953C15.5141 17.6135 15.3746 17.3557 15.3411 17.0744L15.3333 16.9444V12.5C15.3333 12.1333 15.2444 11.9622 15.1867 11.8833C15.1037 11.7802 14.9895 11.7068 14.8611 11.6744C14.4744 11.5522 13.9178 11.6167 13.5478 11.7744C12.9922 12.0122 12.4833 12.3856 12.1367 12.7311L12 12.8778V16.9444C11.9997 17.2276 11.8912 17.5 11.6968 17.706C11.5024 17.9119 11.2367 18.0358 10.954 18.0524C10.6713 18.069 10.3929 17.977 10.1757 17.7953C9.95857 17.6135 9.819 17.3557 9.78556 17.0744L9.77778 16.9444V10.2778C9.77778 9.98309 9.89484 9.70048 10.1032 9.4921C10.3116 9.28373 10.5942 9.16667 10.8889 9.16667ZM7.55556 6.94444C7.85024 6.94444 8.13286 7.06151 8.34123 7.26988C8.5496 7.47826 8.66667 7.76087 8.66667 8.05556C8.66667 8.35024 8.5496 8.63286 8.34123 8.84123C8.13286 9.0496 7.85024 9.16667 7.55556 9.16667C7.26087 9.16667 6.97826 9.0496 6.76988 8.84123C6.56151 8.63286 6.44444 8.35024 6.44444 8.05556C6.44444 7.76087 6.56151 7.47826 6.76988 7.26988C6.97826 7.06151 7.26087 6.94444 7.55556 6.94444Z"
                  fill="currentColor"/>
        </g>
        <defs>
            <clipPath id="clip0_1_60794">
                <rect width="24" height="24" fill="white"/>
            </clipPath>
        </defs>
    </symbol>

    <symbol id="youtube" width="24px" height="24px" fill="none" viewBox="0 0 24 24">
        <path d="M12 5C21 5 21 5 21 12C21 19 21 19 12 19C3 19 3 19 3 12C3 5 3 5 12 5Z" stroke="currentColor" stroke-width="2"
              stroke-linecap="round"/>
        <path d="M10 8.5L16 12L10 15.5V8.5Z" fill="currentColor"/>

    </symbol>
</svg>